<?xml version="1.0" standalone="no"?>
<!DOCTYPE svg PUBLIC "-//W3C//DTD SVG 20010904//EN"
 "http://www.w3.org/TR/2001/REC-SVG-20010904/DTD/svg10.dtd">
<svg version="1.0" xmlns="http://www.w3.org/2000/svg"
 width="1170.000000pt" height="813.000000pt" viewBox="0 0 1170.000000 813.000000"
 preserveAspectRatio="xMidYMid meet">
<metadata>
Created by potrace 1.16, written by Peter Selinger 2001-2019
</metadata>
<g transform="translate(0.000000,813.000000) scale(0.100000,-0.100000)"
fill="#000000" stroke="none">
<path d="M503 7751 c-73 -25 -136 -80 -170 -149 l-28 -57 0 -3440 0 -3440 24
-49 c31 -63 84 -116 147 -147 l49 -24 5325 0 5325 0 51 27 c65 34 108 77 142
142 l27 51 0 3435 0 3435 -24 52 c-27 61 -93 126 -159 156 l-47 22 -5305 2
c-5077 2 -5307 2 -5357 -16z m5948 -1011 c309 -25 507 -73 702 -172 120 -62
193 -114 304 -221 165 -158 320 -366 500 -672 317 -536 438 -763 503 -941 164
-451 134 -857 -101 -1327 -72 -142 -102 -196 -304 -547 -161 -280 -291 -486
-373 -595 -281 -369 -594 -556 -1042 -621 -151 -21 -982 -31 -1279 -15 -372
20 -606 72 -818 180 -250 127 -504 406 -770 846 -94 156 -371 642 -413 725
-293 584 -292 1028 3 1616 50 100 283 513 420 744 260 441 496 692 782 835
179 89 375 143 600 164 131 12 1128 13 1286 1z"/>
<path d="M5390 6680 c-331 -14 -601 -70 -782 -161 -204 -103 -432 -321 -620
-594 -146 -212 -485 -793 -594 -1020 -249 -518 -250 -917 -3 -1442 53 -114
363 -659 502 -883 271 -438 517 -670 837 -788 270 -100 522 -120 1285 -103
467 11 592 20 771 59 276 61 453 160 664 372 184 185 324 385 585 840 381 662
465 886 465 1234 0 234 -55 442 -189 721 -68 140 -365 666 -489 864 -357 571
-663 799 -1172 876 -209 31 -818 43 -1260 25z m550 -1350 c0 -13 -7 -20 -20
-20 -19 0 -20 -7 -20 -203 l0 -203 -42 -30 c-57 -40 -98 -117 -105 -195 -5
-51 -8 -59 -27 -59 -11 -1 -70 -2 -130 -3 l-110 -2 -67 -93 c-37 -52 -78 -113
-90 -137 -21 -39 -22 -47 -10 -84 23 -77 13 -76 617 -72 240 1 241 1 267 25
23 21 28 22 39 9 10 -13 7 -20 -19 -43 -44 -39 -79 -42 -495 -38 -342 3 -358
4 -384 24 -49 36 -66 68 -66 121 0 59 3 64 91 191 37 53 116 166 174 249 l107
153 0 195 c0 182 -1 195 -18 195 -24 0 -32 8 -25 26 4 11 38 14 169 14 157 0
164 -1 164 -20z m-489 -8 c33 -27 30 -78 -5 -109 -34 -29 -27 -32 84 -35 72
-3 85 -6 88 -20 3 -16 -7 -18 -111 -18 l-115 0 -7 27 c-3 15 -18 40 -31 56
-57 68 28 154 97 99z m734 -7 c32 -31 32 -70 1 -98 -13 -12 -26 -34 -28 -47
-3 -25 -4 -25 -116 -28 -104 -2 -113 -1 -110 15 3 15 16 18 96 21 50 1 92 7
92 11 0 5 -11 16 -25 25 -19 12 -25 25 -25 51 0 69 68 98 115 50z m-720 -230
c20 -19 37 -25 87 -27 50 -2 63 -6 66 -20 3 -16 -5 -18 -59 -18 -53 0 -65 -4
-85 -25 -31 -33 -86 -35 -108 -3 -23 32 -20 74 6 98 29 27 64 25 93 -5z m706
7 c28 -23 30 -73 4 -102 -26 -29 -78 -27 -103 5 -17 22 -28 25 -82 25 -53 0
-61 2 -58 18 2 13 15 18 61 20 45 2 62 8 82 28 29 29 64 31 96 6z m-53 -219
c47 -22 107 -95 122 -148 12 -41 10 -76 -5 -145 -5 -22 5 -34 81 -95 102 -83
114 -98 114 -146 0 -65 -81 -111 -140 -79 -10 5 -51 50 -91 100 -65 81 -77 91
-99 85 -107 -25 -183 -9 -245 53 -64 64 -85 142 -60 227 41 141 191 210 323
148z m-1845 -1053 l28 0 -3 -82 c-3 -81 -4 -83 -28 -83 -22 0 -26 5 -32 49 -7
50 -25 73 -43 55 -5 -5 -10 -75 -10 -160 0 -120 3 -151 15 -159 21 -13 27 -5
32 39 3 32 0 41 -15 45 -14 3 -18 12 -15 33 3 27 5 28 64 31 50 2 63 0 68 -14
8 -20 -2 -54 -15 -54 -5 0 -9 -32 -9 -70 0 -75 -14 -96 -46 -70 -11 10 -18 10
-26 2 -7 -7 -23 -12 -36 -12 -70 0 -92 55 -92 230 0 182 26 238 105 224 17 -2
43 -4 58 -4z m250 0 c26 0 27 -2 27 -56 0 -56 -12 -94 -30 -94 -6 0 -10 12
-10 26 0 39 -18 64 -45 64 -39 0 -32 -39 21 -106 62 -80 84 -125 84 -175 0
-33 -6 -47 -34 -75 -33 -33 -37 -34 -97 -31 l-64 4 0 84 c0 77 2 84 20 84 15
0 21 -9 26 -37 7 -44 25 -68 49 -68 42 0 28 67 -27 131 -36 40 -57 80 -71 131
-9 32 -7 42 12 70 25 38 63 60 91 53 11 -2 32 -5 48 -5z m382 -15 c22 -21 25
-33 25 -93 0 -43 -5 -75 -14 -88 -13 -16 -13 -21 0 -35 21 -23 29 -118 15
-161 -16 -48 -43 -60 -131 -56 l-75 3 -3 33 c-3 27 1 35 17 39 20 5 21 12 20
153 -1 117 -4 150 -15 154 -14 5 -20 57 -7 69 3 4 37 7 75 7 60 0 72 -3 93
-25z m400 5 c33 -27 48 -260 24 -356 -27 -107 -139 -114 -178 -11 -6 16 -11
97 -11 180 0 146 1 153 23 172 12 11 31 23 42 27 26 9 83 2 100 -12z m229 10
c20 0 21 -4 16 -72 -4 -56 -9 -73 -20 -73 -9 0 -16 12 -18 30 -5 37 -19 55
-43 55 -37 0 -23 -53 31 -118 58 -70 70 -97 70 -160 -1 -93 -47 -118 -192
-103 -9 1 -11 132 -2 155 10 27 43 19 49 -11 14 -67 20 -78 45 -78 36 0 38 41
6 85 -108 148 -125 197 -86 247 30 39 60 54 94 48 16 -3 38 -5 50 -5z m218 -1
c37 -20 48 -69 48 -222 0 -133 -2 -147 -23 -178 -43 -64 -113 -64 -151 0 -17
29 -19 53 -20 197 -1 163 -1 164 24 181 48 35 85 41 122 22z m206 5 c16 -5 22
-14 22 -35 0 -19 -5 -29 -15 -29 -13 0 -15 -24 -15 -160 0 -152 1 -160 19
-160 17 0 20 8 23 48 3 43 5 47 31 50 l28 3 -3 -83 -3 -83 -98 -2 c-96 -3 -98
-2 -109 23 -11 23 -9 29 10 44 21 18 22 24 20 164 -1 80 -6 146 -10 146 -13 0
-28 38 -22 54 9 23 72 33 122 20z m243 -16 l0 -23 9 23 c9 21 15 23 67 20 58
-3 58 -3 55 -33 -2 -16 -8 -31 -13 -33 -5 -2 -9 -76 -9 -164 l0 -160 -29 -29
c-25 -24 -38 -29 -78 -29 -99 0 -116 39 -106 243 4 100 3 137 -5 137 -7 0 -12
15 -12 35 l0 35 60 0 c55 0 60 -2 61 -22z m429 -48 c8 -100 3 -120 -31 -120
-29 0 -29 1 -29 60 0 47 -3 60 -15 60 -13 0 -15 -24 -15 -154 0 -145 1 -154
20 -159 20 -5 27 -41 12 -62 -8 -12 -122 -13 -139 -2 -7 5 -13 21 -13 38 0 22
5 29 20 29 19 0 20 7 20 150 0 124 -2 150 -14 150 -11 0 -16 -15 -18 -52 -3
-49 -5 -53 -28 -53 -24 0 -25 3 -31 75 -9 112 -11 111 134 108 l122 -3 5 -65z
m366 47 c22 -19 27 -35 34 -92 9 -86 3 -239 -11 -283 -15 -47 -76 -74 -124
-56 -9 4 -25 23 -35 44 -17 33 -20 61 -21 195 -1 139 1 159 18 177 38 43 99
49 139 15z m198 6 c3 -10 17 -63 32 -118 14 -55 28 -102 31 -105 2 -2 3 34 1
82 -2 75 -5 88 -21 92 -14 3 -18 12 -15 33 3 27 5 28 63 28 56 0 60 -2 63 -24
2 -14 -3 -30 -12 -36 -13 -10 -16 -43 -18 -201 l-3 -189 -42 -3 c-42 -3 -42
-3 -53 40 -63 245 -67 253 -69 136 -1 -89 1 -98 20 -108 14 -8 19 -19 17 -38
-3 -25 -6 -27 -60 -30 l-58 -3 0 36 c0 19 5 35 10 35 6 0 10 57 10 153 -1 118
-4 156 -15 171 -18 24 -19 53 -2 59 6 3 35 6 64 6 41 1 53 -3 57 -16z m364
-63 c-2 -59 -6 -75 -18 -75 -9 0 -16 12 -18 30 -5 37 -19 55 -43 55 -34 0 -24
-52 22 -106 84 -101 103 -189 55 -249 -22 -27 -29 -30 -87 -31 -35 0 -70 2
-76 4 -9 3 -13 27 -13 72 0 81 6 100 30 100 20 0 30 -19 30 -59 0 -31 16 -51
41 -51 42 0 33 64 -16 119 -44 48 -85 127 -85 163 0 64 55 107 133 105 l48 -2
-3 -75z m-2450 33 c2 -25 -1 -33 -12 -33 -14 0 -16 -21 -16 -155 0 -131 2
-155 15 -155 10 0 15 -10 15 -34 l0 -34 -60 -4 c-33 -1 -65 -1 -70 0 -16 6
-12 62 5 68 21 9 23 314 1 314 -17 0 -27 45 -12 60 6 6 37 10 71 8 60 -3 60
-3 63 -35z m1700 8 c2 -14 -3 -30 -12 -36 -12 -9 -15 -39 -17 -160 0 -92 3
-150 9 -154 6 -3 12 -20 14 -36 3 -30 3 -30 -57 -36 -33 -3 -63 -4 -67 -2 -14
7 -8 60 7 73 13 11 15 39 14 154 -1 130 -2 142 -21 157 -16 12 -19 23 -14 43
6 26 8 27 74 24 62 -3 67 -5 70 -27z m262 -671 c0 -68 1 -70 25 -70 24 0 25 2
25 71 l0 70 38 -3 37 -3 3 -63 c2 -37 -2 -69 -8 -77 -7 -9 -34 -14 -76 -14
l-64 0 0 80 c0 46 4 79 10 79 6 0 10 -30 10 -70z"/>
<path d="M5966 4850 c-52 -16 -96 -54 -121 -104 -28 -55 -31 -86 -14 -137 54
-161 261 -186 350 -42 35 56 34 145 -4 201 -43 66 -141 104 -211 82z"/>
<path d="M5216 3744 c-3 -9 -6 -75 -6 -149 0 -110 3 -135 16 -146 14 -11 18
-10 30 6 11 14 13 50 10 154 -2 75 -5 139 -5 144 -2 14 -39 7 -45 -9z"/>
<path d="M5680 3606 c0 -156 6 -180 36 -155 12 10 14 39 12 158 -3 143 -3 146
-25 149 l-23 3 0 -155z"/>
<path d="M6192 3762 c-9 -7 -12 -46 -10 -163 3 -141 5 -154 22 -157 10 -2 22
2 27 10 5 7 9 79 9 159 0 125 -2 148 -16 153 -19 7 -16 7 -32 -2z"/>
<path d="M6917 3754 c-4 -4 -7 -74 -7 -155 0 -113 3 -148 13 -152 33 -13 38 8
35 159 -3 125 -5 149 -18 152 -9 1 -19 0 -23 -4z"/>
</g>
</svg>
