<?xml version="1.0" standalone="no"?>
<!DOCTYPE svg PUBLIC "-//W3C//DTD SVG 20010904//EN"
 "http://www.w3.org/TR/2001/REC-SVG-20010904/DTD/svg10.dtd">
<svg version="1.0" xmlns="http://www.w3.org/2000/svg"
 width="1170.000000pt" height="813.000000pt" viewBox="0 0 1170.000000 813.000000"
 preserveAspectRatio="xMidYMid meet">
<metadata>
Created by potrace 1.16, written by Peter Selinger 2001-2019
</metadata>
<g transform="translate(0.000000,813.000000) scale(0.100000,-0.100000)"
fill="#000000" stroke="none">
<path d="M520 7761 c-79 -24 -150 -83 -188 -155 l-27 -51 -3 -3432 c-2 -3418
-2 -3432 18 -3486 27 -73 79 -130 148 -164 l57 -28 5325 0 5325 0 57 28 c69
34 121 91 148 164 20 54 20 68 18 3481 l-3 3427 -28 57 c-30 61 -74 105 -140
140 l-42 23 -5320 2 c-2926 1 -5331 -2 -5345 -6z m6075 -1035 c615 -84 918
-315 1342 -1021 131 -217 364 -626 413 -725 100 -198 175 -427 201 -608 7 -52
10 -146 6 -245 -4 -139 -9 -180 -37 -286 -38 -149 -81 -264 -159 -425 -57
-119 -341 -620 -492 -869 -360 -591 -708 -838 -1279 -907 -47 -6 -278 -13
-515 -17 -454 -6 -817 6 -1005 32 -520 74 -816 276 -1165 795 -130 193 -447
741 -556 960 -267 538 -275 953 -30 1490 87 192 470 860 612 1070 204 302 396
484 634 603 201 100 358 139 690 171 22 2 306 2 630 1 480 -2 612 -6 710 -19z"/>
<path d="M5410 6684 c-356 -16 -611 -69 -810 -169 -273 -137 -533 -426 -817
-910 -477 -812 -575 -1053 -576 -1415 -1 -355 91 -598 482 -1270 287 -492 415
-675 588 -841 289 -276 580 -378 1118 -395 277 -8 1072 11 1205 30 283 40 488
113 659 234 133 94 324 298 452 482 132 188 460 749 585 1000 203 408 253 726
169 1077 -61 253 -166 469 -548 1118 -255 433 -441 659 -668 813 -180 121
-406 197 -699 233 -81 10 -982 20 -1140 13z m499 -1339 c34 -7 43 -35 11 -35
-19 0 -20 -7 -20 -202 l0 -203 -34 -22 c-68 -44 -116 -134 -116 -219 l0 -44
-129 0 -129 0 -29 -37 c-16 -21 -56 -76 -89 -123 -52 -75 -59 -91 -59 -132 0
-39 5 -53 28 -75 l27 -28 393 -3 393 -3 39 26 c29 20 40 23 46 14 10 -16 -5
-36 -42 -55 -23 -11 -100 -14 -426 -14 -377 0 -400 1 -430 20 -46 28 -66 72
-61 134 4 47 18 70 186 311 l181 260 1 198 c0 190 -1 197 -20 197 -18 0 -27
19 -16 31 8 7 264 11 295 4z m-451 -32 c20 -28 14 -72 -13 -97 -14 -13 -25
-26 -25 -30 0 -3 43 -6 95 -6 88 0 95 -1 95 -20 0 -19 -7 -20 -110 -20 l-110
0 0 30 c0 19 -7 33 -21 40 -41 22 -42 87 -1 118 21 17 72 8 90 -15z m720 10
c34 -29 37 -65 9 -99 -13 -16 -27 -41 -31 -56 l-6 -28 -106 0 c-95 0 -105 2
-102 18 3 14 16 17 86 18 45 1 85 4 89 8 3 3 -6 17 -20 30 -40 37 -36 89 8
114 28 16 50 15 73 -5z m-706 -243 c13 -16 29 -20 77 -20 54 0 61 -2 61 -20 0
-18 -7 -20 -61 -20 -53 0 -64 -3 -81 -25 -39 -49 -118 -19 -118 44 0 62 81 89
122 41z m681 19 c30 -16 37 -28 37 -66 0 -60 -80 -86 -118 -38 -17 21 -28 25
-75 25 -56 0 -82 15 -56 31 8 5 37 9 65 9 37 0 54 4 58 15 5 14 38 33 59 34 5
1 18 -4 30 -10z m-45 -225 c105 -43 157 -160 129 -285 -8 -35 -8 -36 60 -91
112 -91 133 -115 133 -155 0 -74 -95 -122 -147 -73 -12 10 -53 57 -92 103
l-71 85 -43 -15 c-99 -35 -219 21 -272 126 -21 42 -22 134 -3 181 37 88 115
140 211 140 32 0 74 -7 95 -16z m-1835 -1057 l27 5 0 -80 c0 -70 -2 -80 -19
-85 -26 -6 -41 11 -41 48 0 42 -24 75 -42 57 -9 -9 -14 -54 -16 -155 -3 -117
0 -146 12 -162 16 -20 16 -20 31 -1 8 11 15 32 15 48 0 18 -5 28 -15 28 -11 0
-15 11 -15 35 l0 36 58 -3 c51 -3 57 -5 60 -27 2 -13 -2 -27 -9 -32 -9 -5 -12
-28 -11 -75 3 -72 -7 -90 -41 -72 -13 7 -22 7 -30 -1 -18 -18 -62 -12 -84 12
-33 37 -40 75 -39 224 1 127 3 144 22 170 23 31 58 44 90 32 11 -4 32 -5 47
-2z m255 1 c20 2 22 -3 22 -47 0 -55 -14 -101 -30 -101 -5 0 -10 13 -10 29 0
37 -31 77 -53 68 -34 -13 -18 -65 39 -129 69 -78 89 -149 58 -209 -20 -41 -66
-58 -131 -52 l-53 6 0 77 c0 62 3 79 16 84 24 9 34 -2 34 -35 0 -17 5 -39 10
-50 13 -23 55 -25 64 -3 8 21 -18 80 -55 122 -38 43 -68 107 -69 145 0 56 67
115 115 100 11 -4 30 -6 43 -5z m379 -11 c11 -11 18 -38 21 -83 4 -55 1 -70
-17 -94 -18 -26 -19 -30 -5 -38 21 -12 37 -87 29 -139 -9 -61 -40 -83 -121
-83 -34 0 -69 3 -78 6 -23 9 -20 51 4 66 19 12 20 24 20 161 0 122 -3 149 -15
153 -23 9 -19 53 6 62 39 15 137 8 156 -11z m371 12 c47 -16 57 -53 57 -219 0
-161 -10 -197 -62 -219 -47 -19 -85 -2 -110 49 -21 40 -23 59 -23 190 l0 146
28 26 c41 39 62 44 110 27z m250 -1 c21 2 22 -2 22 -68 0 -68 -13 -97 -31 -69
-5 8 -9 26 -9 41 0 35 -35 57 -57 36 -18 -19 -5 -55 41 -111 57 -70 76 -109
76 -154 0 -90 -45 -126 -140 -115 l-55 7 -2 67 c-2 99 36 136 52 51 8 -46 21
-63 47 -63 45 0 35 53 -23 130 -47 62 -78 124 -79 157 0 25 44 81 74 93 12 5
30 6 41 3 11 -4 30 -6 43 -5z m240 -13 c22 -20 32 -84 32 -213 0 -164 -20
-211 -92 -217 -46 -3 -56 2 -78 45 -16 31 -19 62 -21 194 -2 151 -2 157 21
180 12 14 32 27 44 29 30 6 79 -3 94 -18z m181 19 c24 -5 31 -12 31 -31 0 -13
-7 -26 -15 -29 -12 -5 -15 -33 -15 -165 0 -151 1 -159 19 -159 17 0 20 8 23
48 3 43 5 47 28 47 24 0 25 -2 28 -77 2 -43 -1 -78 -5 -79 -4 0 -50 -2 -101
-4 -81 -2 -94 0 -102 15 -12 22 -4 46 16 54 22 8 20 301 -2 314 -9 5 -14 18
-12 33 3 22 11 27 69 38 4 0 21 -2 38 -5z m252 -16 l0 -23 9 23 c8 19 17 22
65 22 l55 0 0 -35 c0 -19 -4 -35 -10 -35 -6 0 -10 -57 -10 -150 0 -198 -15
-230 -109 -230 -31 0 -49 7 -73 29 l-33 29 3 161 c2 107 -1 161 -8 161 -5 0
-10 16 -10 35 l0 35 60 0 c55 0 60 -2 61 -22z m417 13 c9 -5 12 -31 10 -92 -3
-82 -4 -84 -28 -84 -23 0 -25 4 -28 58 -2 42 -7 57 -17 57 -13 0 -15 -26 -15
-155 0 -128 3 -155 14 -155 17 0 29 -31 20 -53 -6 -17 -115 -28 -140 -14 -22
12 -18 58 6 64 19 5 20 14 20 154 0 126 -2 149 -15 149 -11 0 -15 -12 -15 -49
0 -50 -13 -67 -45 -55 -11 5 -15 24 -16 73 -2 82 0 94 14 103 16 10 219 10
235 -1z m387 -22 c18 -18 20 -35 23 -182 3 -156 3 -163 -20 -197 -46 -68 -113
-67 -147 3 -19 38 -21 62 -21 198 0 148 1 156 23 176 40 37 105 38 142 2z
m183 16 c5 -6 19 -53 32 -105 32 -132 39 -139 40 -39 0 78 -2 87 -20 92 -13 3
-20 14 -20 30 0 30 15 36 80 34 41 -2 45 -4 48 -30 2 -18 -2 -29 -12 -33 -14
-5 -16 -33 -16 -196 l0 -189 -46 3 -46 3 -29 114 c-41 159 -48 166 -49 44 0
-81 3 -103 14 -103 18 0 27 -35 12 -53 -7 -10 -27 -14 -56 -13 -39 1 -45 4
-48 25 -2 13 1 28 7 34 7 7 11 66 11 157 0 115 -3 154 -16 179 -9 18 -12 36
-8 41 19 18 108 21 122 5z m343 5 c29 0 29 0 29 -62 0 -70 -13 -104 -30 -78
-5 8 -10 25 -10 37 0 21 -24 53 -39 53 -5 0 -14 -6 -20 -14 -15 -18 -1 -56 43
-109 57 -70 76 -109 76 -154 0 -90 -48 -129 -142 -115 l-53 7 -3 71 c-2 53 1
74 12 83 21 18 33 7 41 -36 8 -46 21 -63 47 -63 45 0 35 53 -23 130 -77 101
-95 165 -59 208 23 28 71 54 88 47 8 -3 27 -5 43 -5z m-2423 -37 c2 -25 -1
-33 -12 -33 -14 0 -16 -21 -16 -154 0 -130 2 -155 16 -160 10 -4 14 -15 12
-33 -3 -27 -4 -28 -68 -28 -58 0 -65 2 -68 21 -2 11 4 27 13 34 22 18 23 315
0 324 -18 7 -20 52 -2 60 6 2 37 4 67 3 54 -2 55 -2 58 -34z m1698 10 c5 -19
2 -30 -10 -39 -15 -11 -18 -34 -21 -159 -4 -121 -2 -147 10 -152 9 -3 15 -19
15 -39 l0 -34 -65 0 -65 0 0 30 c0 18 6 33 15 36 22 9 22 314 1 314 -20 0 -30
38 -16 55 8 10 32 15 71 15 55 0 59 -2 65 -27z"/>
<path d="M5957 4850 c-72 -22 -136 -105 -137 -175 0 -51 20 -104 52 -141 94
-107 266 -76 323 58 62 150 -81 305 -238 258z"/>
<path d="M5216 3744 c-3 -9 -6 -78 -6 -154 0 -118 2 -139 16 -144 37 -14 44
11 44 149 0 146 -3 165 -30 165 -10 0 -21 -7 -24 -16z"/>
<path d="M5679 3673 c-3 -48 -2 -119 1 -158 4 -62 7 -70 25 -70 19 0 20 7 20
155 0 150 -1 155 -21 158 -20 3 -22 -2 -25 -85z"/>
<path d="M6188 3757 c-10 -11 -13 -48 -11 -156 1 -78 5 -146 8 -151 10 -16 42
-12 49 6 3 9 6 80 6 159 0 121 -2 144 -16 149 -21 8 -21 8 -36 -7z"/>
<path d="M6912 3603 c3 -150 4 -158 23 -158 19 0 20 8 23 158 l3 157 -26 0
-26 0 3 -157z"/>
</g>
</svg>
