<?xml version="1.0" encoding="utf-8"?>
<!-- Generator: Adobe Illustrator 24.1.1, SVG Export Plug-In . SVG Version: 6.00 Build 0)  -->
<svg version="1.1" id="Layer_1" xmlns="http://www.w3.org/2000/svg" xmlns:xlink="http://www.w3.org/1999/xlink" x="0px" y="0px"
	 viewBox="0 0 516.8 136.9" style="enable-background:new 0 0 516.8 136.9;" xml:space="preserve">
<style type="text/css">
	.st0{fill:#006991;}
	.st1{fill:#00A99D;}
</style>
<g>
	<g>
		<path class="st0" d="M158.4,31.8c15.4,0,24,8.8,24,26.7c0,17.8-8.5,26.4-24,26.4h-7.2c-15.5,0-24-8.7-24-26.4
			c0-17.9,8.6-26.7,24-26.7H158.4z M151.2,41c-10.2,0-14.7,5.2-14.7,17.4c0,12.1,4.4,17.2,14.7,17.2h7.2c10.2,0,14.6-5,14.6-17.2
			c0-12.1-4.4-17.3-14.6-17.3H151.2z"/>
		<path class="st0" d="M216.4,43.3v8h-14.6c-3.7,0-5.4,1.7-5.4,5.4v28.2h-8.3V55.4c0-8.3,3.1-12.1,11.3-12.1H216.4z"/>
		<path class="st0" d="M258.9,43.3v8h-20.6c-7.2,0-10.4,3.8-10.4,12.8c0,9,3.1,12.7,10.4,12.7h20.6v8.1h-21.4
			c-11.1,0-18-6.8-18-20.8c0-14,6.9-20.8,18-20.8H258.9z"/>
		<path class="st0" d="M274.1,27.7v9.7h-8.4v-9.7H274.1z M274,43.3v41.6h-8.3V43.3H274z"/>
		<path class="st0" d="M310.4,43.3c9.9,0,15.3,5.8,15.3,17.8V85c0,11.8-4.1,16.4-15.7,16.4h-24.7v-8H309c6.2,0,8.3-2.4,8.3-8.4v-1.9
			h-18.3c-11.1,0-18-6.5-18-20c0-13.4,6.9-19.8,18-19.8H310.4z M299.7,75.6h17.6V61c0-6.8-2.6-9.7-9.3-9.7h-8.3
			c-7.2,0-10.4,3.6-10.4,12.1S292.5,75.6,299.7,75.6z"/>
		<path class="st0" d="M361.2,43.3c9.8,0,14,4.7,14,12.8c0,7.6-3.9,12-14.1,12h-19.8v3c0,3.3,1.8,5.7,6.4,5.7h25.4v8.1h-25.4
			c-10.4,0-14.5-5.8-14.5-13.7V57c0-7.9,4.1-13.7,14.5-13.7H361.2z M341.4,61.5h19.5c4.5,0,6.1-1.9,6.1-5c0-3.1-1.8-5.2-5.9-5.2
			h-13.4c-4.6,0-6.4,2.5-6.4,5.7V61.5z"/>
		<path class="st0" d="M405.3,43.3c14.1,0,20.9,6.7,20.9,18.2v23.4h-8.4V61.5c0-6.5-3.8-10.2-12.5-10.2h-13.6c-0.7,0-1,0.4-1,1.2
			v32.3h-8.3V49.8c0-4.9,1.7-6.5,5.8-6.5H405.3z"/>
		<path class="st0" d="M443.3,27.7v9.7h-8.4v-9.7H443.3z M443.2,43.3v41.6h-8.3V43.3H443.2z"/>
		<path class="st0" d="M459.4,43.3l13.8,15l14.3-15h10.4L478.4,64l19.8,20.9h-10.6l-14.6-16l-15,16h-10.4l20.2-21.6l-18.9-19.9
			H459.4z"/>
	</g>
	<g>
		<path class="st0" d="M111.9,6.6c-5.3,0.8-9.7,5-10.8,10.3c-0.2,0.9-0.3,1.9-0.3,2.8c0,3.9-1.3,7.8-4.1,10.6L76,51
			c-2.8,2.8-6.7,4.2-10.7,4.2c0,0,0,0-0.1,0c0,0,0,0-0.1,0c-4,0-7.9-1.4-10.7-4.2l-6.7-6.7c-2.8-2.8-4.1-6.6-4.1-10.6
			c0-0.9-0.1-1.8-0.3-2.8c-1.1-5.3-5.4-9.5-10.8-10.3c-8.9-1.4-16.5,6.2-15.1,15.1c0.8,5.3,5,9.7,10.3,10.8c0.9,0.2,1.9,0.3,2.8,0.3
			c3.9,0,7.8,1.3,10.5,4.1l6.7,6.7c2.8,2.8,4.2,6.7,4.2,10.7c0,0,0,0,0,0.1c0,0,0,0,0,0.1c0,4-1.4,7.9-4.2,10.7L27,100
			c-2.8,2.8-6.6,4.1-10.5,4.1c-0.9,0-1.8,0.1-2.8,0.3c-5.3,1.1-9.5,5.4-10.3,10.8c-1.4,8.9,6.2,16.5,15.1,15.1
			c5.4-0.8,9.7-5,10.8-10.3c0.2-0.9,0.3-1.9,0.3-2.8c0-3.9,1.3-7.8,4.1-10.6l20.8-20.8c2.8-2.8,6.7-4.2,10.7-4.2c0,0,0,0,0.1,0
			c0,0,0,0,0.1,0c4,0,7.9,1.4,10.7,4.2l6.8,6.8c2.8,2.8,4.1,6.6,4.1,10.5c0,0.9,0.1,1.8,0.3,2.8c1.1,5.3,5.4,9.5,10.8,10.3
			c8.9,1.4,16.5-6.2,15.1-15.1c-0.8-5.3-5-9.7-10.3-10.8c-0.9-0.2-1.9-0.3-2.8-0.3c-3.9,0-7.8-1.3-10.6-4.1l-6.8-6.8
			c-2.8-2.8-4.2-6.7-4.2-10.7c0,0,0,0,0-0.1c0,0,0,0,0-0.1c0-4,1.4-7.9,4.2-10.7l20.8-20.8c2.8-2.8,6.6-4.1,10.6-4.1
			c0.9,0,1.8-0.1,2.8-0.3c5.3-1.1,9.5-5.4,10.3-10.8C128.4,12.8,120.8,5.2,111.9,6.6z"/>
		
			<ellipse transform="matrix(0.7071 -0.7071 0.7071 0.7071 -4.6181 55.9024)" class="st1" cx="65.2" cy="33.5" rx="13.2" ry="13.2"/>
		<g>
			<circle class="st1" cx="100.1" cy="68.4" r="13.2"/>
		</g>
		<circle class="st1" cx="30.3" cy="68.4" r="13.2"/>
		<circle class="st1" cx="65.2" cy="103.3" r="13.2"/>
	</g>
	<g>
		<path class="st1" d="M348.9,93.3v9.8c0,1.4,0.7,2.6,3.1,2.6h5.8v2.6h-6c-4,0-5.5-2.2-5.5-5.2v-9.8H348.9z"/>
		<path class="st1" d="M362.6,92.1v2.7h-2.4v-2.7H362.6z M362.6,96.5v11.8h-2.4V96.5H362.6z"/>
		<path class="st1" d="M366.4,96.5v-1c0-3.1,1-4.1,3.5-4.1h2.1v2.2h-1.6c-1.1,0-1.6,0.4-1.6,1.8v1.2h3.3v2.3h-3.3v9.5h-2.4v-9.5
			h-1.6v-2.3H366.4z"/>
		<path class="st1" d="M382,96.5c2.8,0,4,1.3,4,3.6c0,2.2-1.1,3.4-4,3.4h-5.6v0.8c0,0.9,0.5,1.6,1.8,1.6h7.2v2.3h-7.2
			c-2.9,0-4.1-1.6-4.1-3.9v-4c0-2.2,1.2-3.9,4.1-3.9H382z M376.4,101.7h5.5c1.3,0,1.7-0.5,1.7-1.4c0-0.9-0.5-1.5-1.7-1.5h-3.8
			c-1.3,0-1.8,0.7-1.8,1.6V101.7z"/>
		<path class="st1" d="M406.5,93.3v2.6h-7.7c-1.4,0-2,0.7-2,1.8c0,0.9,0.5,1.8,2.2,1.8h3.5c4.1,0,5.1,2.3,5.1,4.4
			c0,2.5-1.4,4.4-4.8,4.4h-8.4v-2.6h8.5c1.4,0,2.1-0.8,2.1-1.9c0-1-0.5-1.9-2.4-1.9h-3.5c-4,0-4.9-2.3-4.9-4.3
			c0-2.5,1.3-4.3,4.7-4.3H406.5z"/>
		<path class="st1" d="M421.1,96.5v2.3h-5.8c-2,0-2.9,1.1-2.9,3.6c0,2.5,0.9,3.6,2.9,3.6h5.8v2.3H415c-3.1,0-5.1-1.9-5.1-5.9
			s2-5.9,5.1-5.9H421.1z"/>
		<path class="st1" d="M426.2,92.1v2.7h-2.4v-2.7H426.2z M426.2,96.5v11.8h-2.4V96.5H426.2z"/>
		<path class="st1" d="M437.3,96.5c2.8,0,4,1.3,4,3.6c0,2.2-1.1,3.4-4,3.4h-5.6v0.8c0,0.9,0.5,1.6,1.8,1.6h7.2v2.3h-7.2
			c-2.9,0-4.1-1.6-4.1-3.9v-4c0-2.2,1.2-3.9,4.1-3.9H437.3z M431.7,101.7h5.5c1.3,0,1.7-0.5,1.7-1.4c0-0.9-0.5-1.5-1.7-1.5h-3.8
			c-1.3,0-1.8,0.7-1.8,1.6V101.7z"/>
		<path class="st1" d="M450.6,96.5c4,0,5.9,1.9,5.9,5.1v6.6h-2.4v-6.6c0-1.8-1.1-2.9-3.5-2.9h-3.9c-0.2,0-0.3,0.1-0.3,0.3v9.2h-2.4
			v-9.9c0-1.4,0.5-1.8,1.6-1.8H450.6z"/>
		<path class="st1" d="M470.5,96.5v2.3h-5.8c-2,0-2.9,1.1-2.9,3.6c0,2.5,0.9,3.6,2.9,3.6h5.8v2.3h-6.1c-3.1,0-5.1-1.9-5.1-5.9
			s2-5.9,5.1-5.9H470.5z"/>
		<path class="st1" d="M481,96.5c2.8,0,4,1.3,4,3.6c0,2.2-1.1,3.4-4,3.4h-5.6v0.8c0,0.9,0.5,1.6,1.8,1.6h7.2v2.3h-7.2
			c-2.9,0-4.1-1.6-4.1-3.9v-4c0-2.2,1.2-3.9,4.1-3.9H481z M475.4,101.7h5.5c1.3,0,1.7-0.5,1.7-1.4c0-0.9-0.5-1.5-1.7-1.5h-3.8
			c-1.3,0-1.8,0.7-1.8,1.6V101.7z"/>
		<path class="st1" d="M497.6,96.5v2.3h-6.5c-1.1,0-1.5,0.4-1.5,1.3c0,0.8,0.4,1.3,1.7,1.3h2.8c3.3,0,4.1,1.5,4.1,3.3
			c0,2.1-1.1,3.6-3.9,3.6h-6.8V106h6.8c1.1,0,1.5-0.4,1.5-1.3c0-0.9-0.5-1.3-1.7-1.3h-2.8c-3.3,0-4.1-1.6-4.1-3.4
			c0-2.1,1.1-3.4,3.8-3.4H497.6z"/>
	</g>
</g>
</svg>
